<svg width="237" height="39" viewBox="0 0 237 39" fill="none" xmlns="http://www.w3.org/2000/svg">
<path d="M26 13H13V26H26V13Z" stroke="#FEFEFF" stroke-width="4" stroke-linecap="round" stroke-linejoin="round"/>
<path d="M8.125 35.75C10.8062 35.75 13 33.5562 13 30.875V26H8.125C5.44375 26 3.25 28.1938 3.25 30.875C3.25 33.5562 5.44375 35.75 8.125 35.75Z" stroke="#FEFEFF" stroke-width="4" stroke-linecap="round" stroke-linejoin="round"/>
<path d="M8.125 13H13V8.125C13 5.44375 10.8062 3.25 8.125 3.25C5.44375 3.25 3.25 5.44375 3.25 8.125C3.25 10.8062 5.44375 13 8.125 13Z" stroke="#FEFEFF" stroke-width="4" stroke-linecap="round" stroke-linejoin="round"/>
<path d="M26 13H30.875C33.5562 13 35.75 10.8062 35.75 8.125C35.75 5.44375 33.5562 3.25 30.875 3.25C28.1938 3.25 26 5.44375 26 8.125V13Z" stroke="#FEFEFF" stroke-width="4" stroke-linecap="round" stroke-linejoin="round"/>
<path d="M30.875 35.75C33.5562 35.75 35.75 33.5562 35.75 30.875C35.75 28.1938 33.5562 26 30.875 26H26V30.875C26 33.5562 28.1938 35.75 30.875 35.75Z" stroke="#FEFEFF" stroke-width="4" stroke-linecap="round" stroke-linejoin="round"/>
<path d="M60.4327 32.51C58.6647 32.51 57.078 32.238 55.6727 31.694C54.2673 31.15 53.0773 30.3567 52.1027 29.314C51.128 28.2487 50.38 26.9567 49.8587 25.438C49.3373 23.9193 49.0767 22.174 49.0767 20.202C49.0767 18.23 49.3713 16.4847 49.9607 14.966C50.5727 13.4473 51.4 12.1667 52.4427 11.124C53.4853 10.0587 54.7093 9.254 56.1147 8.71C57.52 8.166 59.0273 7.894 60.6367 7.894C61.6113 7.894 62.4953 7.97333 63.2887 8.132C64.082 8.268 64.7733 8.42667 65.3627 8.608C65.952 8.78933 66.4393 8.982 66.8247 9.186C67.21 9.39 67.482 9.53733 67.6407 9.628L66.3827 13.13C65.8387 12.79 65.0567 12.4727 64.0367 12.178C63.0393 11.8607 61.9513 11.702 60.7727 11.702C59.7527 11.702 58.8007 11.8833 57.9167 12.246C57.0327 12.586 56.262 13.1073 55.6047 13.81C54.97 14.5127 54.4713 15.3967 54.1087 16.462C53.746 17.5273 53.5647 18.7627 53.5647 20.168C53.5647 21.4147 53.7007 22.5593 53.9727 23.602C54.2673 24.6447 54.7093 25.5513 55.2987 26.322C55.888 27.07 56.636 27.6593 57.5427 28.09C58.4493 28.498 59.5373 28.702 60.8067 28.702C62.3253 28.702 63.5607 28.5547 64.5127 28.26C65.4647 27.9427 66.2013 27.648 66.7227 27.376L67.8787 30.878C67.6067 31.0593 67.2327 31.2407 66.7567 31.422C66.3033 31.6033 65.7593 31.7847 65.1247 31.966C64.49 32.1247 63.776 32.2493 62.9827 32.34C62.1893 32.4533 61.3393 32.51 60.4327 32.51ZM74.5467 20.202C74.5467 21.494 74.7053 22.6727 75.0227 23.738C75.34 24.7807 75.7933 25.676 76.3827 26.424C76.9947 27.1493 77.7313 27.716 78.5927 28.124C79.454 28.532 80.4287 28.736 81.5167 28.736C82.582 28.736 83.5453 28.532 84.4067 28.124C85.268 27.716 85.9933 27.1493 86.5827 26.424C87.1947 25.676 87.6593 24.7807 87.9767 23.738C88.294 22.6727 88.4527 21.494 88.4527 20.202C88.4527 18.91 88.294 17.7427 87.9767 16.7C87.6593 15.6347 87.1947 14.7393 86.5827 14.014C85.9933 13.266 85.268 12.688 84.4067 12.28C83.5453 11.872 82.582 11.668 81.5167 11.668C80.4287 11.668 79.454 11.872 78.5927 12.28C77.7313 12.688 76.9947 13.266 76.3827 14.014C75.7933 14.762 75.34 15.6573 75.0227 16.7C74.7053 17.7427 74.5467 18.91 74.5467 20.202ZM92.9407 20.202C92.9407 22.2193 92.6347 23.9987 92.0227 25.54C91.4333 27.0813 90.6173 28.3733 89.5747 29.416C88.5547 30.436 87.3533 31.2067 85.9707 31.728C84.588 32.2493 83.1147 32.51 81.5507 32.51C79.9867 32.51 78.502 32.2493 77.0967 31.728C75.714 31.2067 74.5013 30.436 73.4587 29.416C72.4387 28.3733 71.6227 27.0813 71.0107 25.54C70.3987 23.9987 70.0927 22.2193 70.0927 20.202C70.0927 18.1847 70.3987 16.4167 71.0107 14.898C71.6227 13.3567 72.45 12.0647 73.4927 11.022C74.558 9.97933 75.782 9.19733 77.1647 8.676C78.5473 8.15466 80.0093 7.894 81.5507 7.894C83.092 7.894 84.554 8.15466 85.9367 8.676C87.3193 9.19733 88.5207 9.97933 89.5407 11.022C90.5833 12.0647 91.4107 13.3567 92.0227 14.898C92.6347 16.4167 92.9407 18.1847 92.9407 20.202ZM101.924 28.464C102.174 28.4867 102.502 28.5093 102.91 28.532C103.318 28.532 103.874 28.532 104.576 28.532C107.455 28.532 109.597 27.8067 111.002 26.356C112.43 24.8827 113.144 22.8313 113.144 20.202C113.144 17.5273 112.453 15.476 111.07 14.048C109.688 12.62 107.546 11.906 104.644 11.906C103.375 11.906 102.468 11.94 101.924 12.008V28.464ZM117.632 20.202C117.632 22.242 117.315 24.0213 116.68 25.54C116.046 27.036 115.139 28.294 113.96 29.314C112.804 30.3113 111.399 31.0593 109.744 31.558C108.112 32.034 106.299 32.272 104.304 32.272C103.352 32.272 102.276 32.2267 101.074 32.136C99.873 32.068 98.7284 31.9093 97.6404 31.66V8.778C98.7284 8.52867 99.8844 8.37 101.108 8.302C102.332 8.234 103.42 8.2 104.372 8.2C106.344 8.2 108.146 8.438 109.778 8.914C111.41 9.36733 112.804 10.0927 113.96 11.09C115.139 12.0647 116.046 13.3113 116.68 14.83C117.315 16.326 117.632 18.1167 117.632 20.202ZM122.31 32V8.438H137.44V12.076H126.594V17.89H136.25V21.46H126.594V28.362H138.256V32H122.31ZM148.896 8.2C152.319 8.2 154.937 8.82333 156.75 10.07C158.586 11.3167 159.504 13.266 159.504 15.918C159.504 17.3007 159.255 18.4907 158.756 19.488C158.28 20.4627 157.577 21.2673 156.648 21.902C155.719 22.514 154.585 22.9673 153.248 23.262C151.911 23.5567 150.381 23.704 148.658 23.704H146.516V32H142.232V8.778C143.229 8.55133 144.329 8.404 145.53 8.336C146.754 8.24533 147.876 8.2 148.896 8.2ZM149.202 11.906C148.114 11.906 147.219 11.94 146.516 12.008V20.032H148.59C150.653 20.032 152.239 19.7487 153.35 19.182C154.461 18.5927 155.016 17.4933 155.016 15.884C155.016 15.1133 154.869 14.4673 154.574 13.946C154.279 13.4247 153.871 13.0167 153.35 12.722C152.829 12.4273 152.205 12.2233 151.48 12.11C150.777 11.974 150.018 11.906 149.202 11.906ZM169.91 8.2C173.31 8.2 175.905 8.82333 177.696 10.07C179.509 11.3167 180.416 13.2207 180.416 15.782C180.416 18.978 178.84 21.1427 175.69 22.276C176.12 22.7973 176.608 23.432 177.152 24.18C177.696 24.928 178.251 25.744 178.818 26.628C179.384 27.4893 179.928 28.3847 180.45 29.314C180.971 30.2207 181.436 31.116 181.844 32H177.05C176.619 31.184 176.154 30.368 175.656 29.552C175.157 28.7133 174.647 27.9087 174.126 27.138C173.627 26.3447 173.128 25.608 172.63 24.928C172.131 24.2253 171.666 23.602 171.236 23.058C170.918 23.0807 170.646 23.092 170.42 23.092C170.193 23.092 169.978 23.092 169.774 23.092H167.7V32H163.416V8.778C164.458 8.55133 165.569 8.404 166.748 8.336C167.926 8.24533 168.98 8.2 169.91 8.2ZM170.216 11.906C169.309 11.906 168.47 11.94 167.7 12.008V19.624H169.57C170.612 19.624 171.53 19.5673 172.324 19.454C173.117 19.3407 173.774 19.1367 174.296 18.842C174.84 18.5473 175.248 18.1507 175.52 17.652C175.792 17.1533 175.928 16.5187 175.928 15.748C175.928 15.0227 175.792 14.4107 175.52 13.912C175.248 13.4133 174.851 13.0167 174.33 12.722C173.831 12.4273 173.23 12.2233 172.528 12.11C171.825 11.974 171.054 11.906 170.216 11.906ZM185.164 8.438H189.448V32H185.164V8.438ZM199.376 28.464C199.625 28.4867 199.954 28.5093 200.362 28.532C200.77 28.532 201.325 28.532 202.028 28.532C204.906 28.532 207.048 27.8067 208.454 26.356C209.882 24.8827 210.596 22.8313 210.596 20.202C210.596 17.5273 209.904 15.476 208.522 14.048C207.139 12.62 204.997 11.906 202.096 11.906C200.826 11.906 199.92 11.94 199.376 12.008V28.464ZM215.084 20.202C215.084 22.242 214.766 24.0213 214.132 25.54C213.497 27.036 212.59 28.294 211.412 29.314C210.256 30.3113 208.85 31.0593 207.196 31.558C205.564 32.034 203.75 32.272 201.756 32.272C200.804 32.272 199.727 32.2267 198.526 32.136C197.324 32.068 196.18 31.9093 195.092 31.66V8.778C196.18 8.52867 197.336 8.37 198.56 8.302C199.784 8.234 200.872 8.2 201.824 8.2C203.796 8.2 205.598 8.438 207.23 8.914C208.862 9.36733 210.256 10.0927 211.412 11.09C212.59 12.0647 213.497 13.3113 214.132 14.83C214.766 16.326 215.084 18.1167 215.084 20.202ZM219.761 32V8.438H234.891V12.076H224.045V17.89H233.701V21.46H224.045V28.362H235.707V32H219.761Z" fill="#FEFEFF"/>
</svg>
